PathFileType  4	(X/Y/Z) C:\Users\HPL 1\Documents/Temp/Sub278498/Files_W_HJCs/
DataRate	CameraRate	NumFrames	NumMarkers	Units	OrigDataRate	OrigDataStartFrame	OrigNumFrames
50.0	50.0	4	42	mm	50.0	599	684
Frame#	Time  	r_knee			r_shank(antsup)			r_ankle			r_calc			r_5meta			r_toe			L_knee			L_shank(ant_sup)			L_ankle			L_calc			L_5meta			L_toe			r_mknee			r_mankle			L_mknee			L_mankle			r_sh2			r_sh3			r_sh4			L_sh2			L_sh3			r_thigh1			r_thigh2			r_thigh3			r_thigh4			r_thigh5			L_thigh1			L_thigh2			L_thigh3			L_thigh4			r.ASIS			r.PSIS			L.ASIS			L.PSIS			C7			R_Shoulder			L_Shoulder			Sternum			R_HJC			L_HJC			R_HJC_reg			L_HJC_reg			
		X1	Y1	Z1	X2	Y2	Z2	X3	Y3	Z3	X4	Y4	Z4	X5	Y5	Z5	X6	Y6	Z6	X7	Y7	Z7	X8	Y8	Z8	X9	Y9	Z9	X10	Y10	Z10	X11	Y11	Z11	X12	Y12	Z12	X13	Y13	Z13	X14	Y14	Z14	X15	Y15	Z15	X16	Y16	Z16	X17	Y17	Z17	X18	Y18	Z18	X19	Y19	Z19	X20	Y20	Z20	X21	Y21	Z21	X22	Y22	Z22	X23	Y23	Z23	X24	Y24	Z24	X25	Y25	Z25	X26	Y26	Z26	X27	Y27	Z27	X28	Y28	Z28	X29	Y29	Z29	X30	Y30	Z30	X31	Y31	Z31	X32	Y32	Z32	X33	Y33	Z33	X34	Y34	Z34	X35	Y35	Z35	X36	Y36	Z36	X37	Y37	Z37	X38	Y38	Z38	X39	Y39	Z39	X40	Y40	Z40	X41	Y41	Z41	X42	Y42	Z42	

599	11.96000	768.79559	570.26410	-249.42233	785.76575	480.09488	-251.52014	710.05280	111.00774	-283.36230	621.03198	68.63980	-332.72635	817.61658	40.27573	-251.49567	861.44647	74.20417	-311.14160	805.24847	841.87140	-819.56000	849.05695	766.06787	-904.97321	798.59155	483.79813	-1111.90210	751.30890	398.31036	-1083.31787	895.73297	482.63156	-1220.20239	956.69946	482.49527	-1171.73584	757.87915	561.58618	-377.39188	724.09955	119.10460	-378.56418	877.43823	769.44971	-742.09229	861.27856	440.57867	-1052.27344	776.02136	361.04941	-260.95239	711.12421	482.57864	-236.85629	694.55664	367.40436	-239.42534	761.76819	762.58630	-881.56921	759.44702	669.17426	-961.32123	802.06830	898.28650	-213.84105	815.08533	784.35077	-224.28708	774.94330	745.38727	-212.96556	690.98944	874.25098	-187.53833	710.56232	761.17633	-213.48711	772.08527	1050.87439	-631.84607	829.27094	971.87152	-730.59625	668.60760	997.56940	-646.31854	730.15137	913.98004	-733.83002	810.86017	1086.57703	-239.20113	610.85248	1132.99988	-267.92041	751.03607	1166.66284	-476.06845	593.33069	1152.28137	-342.09918	706.29926	1634.84473	-306.11813	803.90930	1595.60400	-155.82130	725.25201	1599.21338	-493.91959	832.17920	1542.66174	-331.31967	743.44934	1000.94614	-259.99414	686.55658	1073.55981	-477.61464	732.08154	1027.05756	-274.31146	694.26516	1068.67181	-434.40770
600	11.98000	769.48328	570.26929	-249.75214	786.40143	480.01077	-251.76788	710.03076	110.98068	-283.30225	620.97034	68.57028	-332.59814	817.57452	40.29720	-251.59854	861.37360	74.34195	-311.22424	793.63342	834.53729	-819.79602	832.34296	756.56299	-905.31934	768.26202	474.39435	-1108.81287	717.91394	391.14307	-1078.98206	863.44147	468.60538	-1217.96033	925.52429	466.15570	-1170.44983	757.72406	561.35547	-377.62897	724.05963	119.13269	-378.51862	862.98462	760.15216	-742.38489	829.78455	429.31686	-1049.69250	776.50165	360.95297	-261.24796	711.75970	482.45703	-236.88484	695.17590	367.34882	-239.33902	745.37848	756.32501	-880.74146	738.32605	662.35980	-959.38757	803.12921	898.10498	-214.79048	816.16351	784.35455	-225.20819	776.24005	745.52258	-213.62428	692.62634	874.44403	-187.36157	711.45850	760.96021	-213.74020	769.83594	1045.79565	-632.98505	822.99878	963.93390	-731.62695	664.35736	996.30682	-645.88062	723.17737	910.57306	-733.44727	812.76917	1085.78662	-240.38747	612.93750	1133.86853	-267.97214	752.47168	1166.10278	-477.34766	595.27405	1153.37891	-342.52231	709.07538	1635.03931	-305.42593	806.65759	1595.46094	-155.23824	727.40533	1599.64319	-493.24240	834.65576	1542.57336	-331.00659	744.46097	1000.74809	-260.78924	687.10984	1073.54290	-478.22883	733.09885	1026.75870	-275.28308	695.14854	1068.67717	-435.45574
601	12.00000	769.81995	570.18964	-249.86858	786.63989	479.84579	-251.76413	709.96570	110.93921	-283.21381	620.89172	68.36776	-332.62222	817.58594	40.34432	-251.61061	861.28955	74.51922	-311.18872	780.21503	826.21790	-819.12567	815.41522	745.60004	-904.18939	738.49524	464.23517	-1104.28979	685.56311	383.35156	-1072.68237	832.23096	453.40900	-1214.34949	894.50964	449.25708	-1167.39368	757.70117	561.17194	-377.66629	723.91956	119.14222	-378.43704	849.19189	750.84454	-742.62170	799.31757	417.90753	-1045.23840	776.71924	360.83401	-261.29776	712.07294	482.32843	-236.82393	695.47229	367.32407	-239.21985	728.48785	749.34418	-878.96240	717.04584	654.94574	-956.57715	803.95459	898.06079	-215.55943	816.98999	784.35309	-225.95959	777.20349	745.54590	-214.08049	693.82532	874.55432	-187.49609	712.54401	761.10925	-213.75841	767.26544	1040.48059	-634.15314	816.43506	955.83447	-732.51855	660.22583	994.80145	-645.11737	714.81976	906.28418	-732.36951	814.32013	1085.21558	-241.38142	615.10706	1134.54797	-268.51749	754.16498	1165.57361	-478.61212	597.03436	1154.54529	-343.29587	711.58179	1635.14722	-304.98697	809.37878	1595.31982	-154.84525	729.71527	1600.08838	-492.78098	836.98810	1542.55017	-330.58899	745.38200	1000.65199	-261.59526	688.04419	1073.54364	-479.00592	734.66935	1026.07113	-276.45769	696.01475	1068.84218	-436.39663
602	12.02000	769.64301	570.16827	-249.78471	786.31787	479.74176	-251.51842	709.84827	110.82552	-283.11978	620.78528	68.22329	-332.56296	817.53467	40.35545	-251.61032	861.16821	74.62655	-311.21500	766.84174	817.64655	-817.41595	798.33136	734.40631	-901.80151	709.56146	454.06595	-1098.02527	653.69135	375.73294	-1064.93896	801.97180	438.14975	-1208.73645	864.33398	432.62079	-1162.34814	757.99585	560.93811	-377.56641	723.79999	119.04933	-378.38718	836.66309	740.73639	-740.88757	769.27032	406.22592	-1038.85266	776.34357	360.69165	-261.18146	711.67322	482.23560	-236.83336	695.00519	367.15802	-239.36320	711.89874	741.81622	-875.86273	696.21014	646.92493	-952.05750	804.37964	898.00244	-215.87254	817.52985	784.18134	-226.03148	777.49213	745.63586	-214.28603	694.35535	874.77051	-187.82603	712.80029	761.24023	-214.09663	765.50763	1035.11218	-635.34882	809.65851	947.24048	-733.30548	656.36725	993.31104	-644.19031	706.56604	901.54791	-731.16663	815.91040	1084.75806	-242.08017	616.51971	1135.47339	-269.36938	755.99426	1165.13428	-479.60513	598.86536	1155.41113	-344.24335	714.11853	1635.19055	-304.63803	811.80920	1595.09644	-154.70309	732.29126	1600.43201	-492.53510	839.40955	1542.44397	-330.31607	746.15929	1000.68678	-262.20433	689.29127	1073.52587	-479.75595	735.31040	1026.12148	-277.16937	697.50914	1068.81190	-437.48850
